<?xml version="1.0" encoding="UTF-8" standalone="no"?>
<!-- Created with Inkscape (http://www.inkscape.org/) -->

<svg
   xmlns:dc="http://purl.org/dc/elements/1.1/"
   xmlns:cc="http://creativecommons.org/ns#"
   xmlns:rdf="http://www.w3.org/1999/02/22-rdf-syntax-ns#"
   xmlns:svg="http://www.w3.org/2000/svg"
   xmlns="http://www.w3.org/2000/svg"
   xmlns:sodipodi="http://sodipodi.sourceforge.net/DTD/sodipodi-0.dtd"
   xmlns:inkscape="http://www.inkscape.org/namespaces/inkscape"
   width="500mm"
   height="500mm"
   viewBox="0 0 1771.6535 1771.6535"
   id="svg4242"
   version="1.1"
   inkscape:version="0.91 r13725"
   sodipodi:docname="tea-maker-gtk.svg">
  <defs
     id="defs4244" />
  <sodipodi:namedview
     id="base"
     pagecolor="#ffffff"
     bordercolor="#666666"
     borderopacity="1.0"
     inkscape:pageopacity="0.0"
     inkscape:pageshadow="2"
     inkscape:zoom="0.12374369"
     inkscape:cx="-1598.9453"
     inkscape:cy="165.47435"
     inkscape:document-units="px"
     inkscape:current-layer="layer1"
     showgrid="false"
     inkscape:window-width="1366"
     inkscape:window-height="710"
     inkscape:window-x="0"
     inkscape:window-y="29"
     inkscape:window-maximized="1" />
  <metadata
     id="metadata4247">
    <rdf:RDF>
      <cc:Work
         rdf:about="">
        <dc:format>image/svg+xml</dc:format>
        <dc:type
           rdf:resource="http://purl.org/dc/dcmitype/StillImage" />
        <dc:title></dc:title>
      </cc:Work>
    </rdf:RDF>
  </metadata>
  <g
     inkscape:label="Layer 1"
     inkscape:groupmode="layer"
     id="layer1"
     transform="translate(0,719.29134)">
    <g
       transform="matrix(8.3741221,0,0,8.3741221,-10708.106,-6786.6701)"
       id="g74751">
      <g
         transform="matrix(1.25,0,0,-1.25,1485.4603,898.44872)"
         id="g4750">
        <path
           inkscape:connector-curvature="0"
           id="path4752"
           style="fill:#293d33;fill-opacity:1;fill-rule:evenodd;stroke:none"
           d="m 0,0 c -9.395,-10.727 -52.197,-11.666 -59.286,-11.666 l -39.645,0 c -7.089,0 -49.889,0.938 -59.286,11.666 L 0,0 Z" />
      </g>
      <g
         transform="matrix(1.25,0,0,-1.25,1459.5948,862.85547)"
         id="g4742">
        <path
           inkscape:connector-curvature="0"
           id="path4744"
           style="fill:#293d33;fill-opacity:1;fill-rule:nonzero;stroke:none"
           d="m 0,0 c -0.704,-1.995 -2.892,-3.042 -4.887,-2.338 -1.995,0.703 -3.042,2.892 -2.338,4.886 2.053,5.762 6.182,8.314 10.388,8.616 2.219,0.16 4.446,-0.354 6.384,-1.388 1.936,-1.032 3.598,-2.608 4.684,-4.571 1.987,-3.592 2.074,-8.289 -1.543,-13.06 -5.503,-7.261 -12.036,-8.067 -18.009,-8.802 -3.419,-0.422 -6.582,-0.813 -8.305,-2.809 -1.382,-1.597 -3.798,-1.772 -5.395,-0.389 -1.598,1.381 -1.773,3.797 -0.39,5.396 3.661,4.245 8.226,4.809 13.16,5.416 4.438,0.548 9.292,1.146 12.823,5.805 1.487,1.961 1.599,3.625 0.973,4.756 C 7.198,2.145 6.631,2.668 5.949,3.031 5.268,3.395 4.484,3.575 3.702,3.52 2.296,3.418 0.849,2.382 0,0" />
      </g>
      <g
         transform="matrix(1.25,0,0,-1.25,1457.8309,843.25097)"
         id="g4746">
        <path
           inkscape:connector-curvature="0"
           id="path4748"
           style="fill:#88b59e;fill-opacity:1;fill-rule:evenodd;stroke:none"
           d="m 0,0 c 0,-27.759 -25.521,-50.262 -57.005,-50.262 -31.483,0 -57.005,22.503 -57.005,50.262 L 0,0 Z" />
      </g>
      <g
         transform="matrix(1.25,0,0,-1.25,1444.5838,859.54735)"
         id="g4754">
        <path
           inkscape:connector-curvature="0"
           id="path4756"
           style="fill:#2f704f;fill-opacity:1;fill-rule:evenodd;stroke:none"
           d="m 0,0 c -5.93,-17.654 -24.461,-30.536 -46.407,-30.536 -21.947,0 -40.478,12.882 -46.407,30.536 L 0,0 Z" />
      </g>
      <g
         transform="matrix(1.25,0,0,-1.25,1485.4603,898.44872)"
         id="g4758">
        <path
           inkscape:connector-curvature="0"
           id="path4760"
           style="fill:#293d33;fill-opacity:1;fill-rule:evenodd;stroke:none"
           d="m 0,0 c -9.395,-10.727 -52.197,-11.666 -59.286,-11.666 l -39.645,0 c -7.089,0 -49.889,0.938 -59.286,11.666 L 0,0 Z" />
      </g>
      <g
         transform="matrix(1.25,0,0,-1.25,1284.585,810.86447)"
         id="g4762">
        <path
           inkscape:connector-curvature="0"
           id="path4764"
           style="fill:#b2773d;fill-opacity:1;fill-rule:evenodd;stroke:none"
           d="m 0,0 c -2.378,-3.038 -3.227,-7.51 7.806,-12.073 12.896,-5.336 39.975,-26.412 44.982,-30.554 4.88,-4.038 -2.293,-17.952 18.66,-25.592 5.754,-2.097 12.389,-2.209 14.728,0.785 2.345,3.001 0.624,9.393 -2.79,14.467 -12.449,18.504 -24.234,8.198 -29.325,11.966 -5.224,3.865 -32.188,25.088 -40.465,36.325 C 6.515,4.937 2.378,3.039 0,0" />
      </g>
      <g
         transform="matrix(1.25,0,0,-1.25,1344.7913,859.54735)"
         id="g4766">
        <path
           inkscape:connector-curvature="0"
           id="path4768"
           style="fill:#707346;fill-opacity:1;fill-rule:evenodd;stroke:none"
           d="m 0,0 c 2.111,-1.646 3.724,-2.938 4.623,-3.681 4.88,-4.038 -2.293,-17.952 18.66,-25.591 0.714,-0.26 1.441,-0.49 2.172,-0.687 2.593,-0.379 5.256,-0.577 7.972,-0.577 0.273,0 0.545,0.004 0.817,0.008 1.628,0.338 2.955,1.003 3.767,2.041 2.344,3.001 0.624,9.392 -2.79,14.466 C 22.771,4.483 10.987,-5.822 5.896,-2.055 5.278,-1.598 4.354,-0.896 3.197,0 L 0,0 Z" />
      </g>
      <path
         inkscape:connector-curvature="0"
         id="path74739"
         d="m 1463.4043,813.5 c -1.503,-0.0942 -4.0653,0.33923 -7.0469,3.32031 -4.7697,4.76973 -2.8243,6.32907 -4.6738,11.29297 -1.8488,4.96468 -3.0158,6.32574 -6.0332,9.34375 l -12.3633,12.36328 -0.6816,0.68164 -9.0586,9.0586 13.0429,0 2.5372,-2.53711 0.6816,-0.68164 15.3789,-15.37891 c 0,0 6.2311,-4.47802 10.2227,-4.96484 3.9909,-0.48687 7.2902,-1.27587 8.664,-2.82227 1.6462,-1.85337 3.796,-8.46957 0.291,-14.11523 0,0 -2.0446,5.74282 -4.1855,7.68945 -2.1415,1.94722 -9.3448,1.55674 -10.3184,-5.64648 0,0 0.8762,-4.38046 4.9649,-7.30079 0,0 -0.5201,-0.24622 -1.4219,-0.30273 z m -54.1934,79.81055 a 62.007874,62.007874 0 0 1 -4.789,1.70898 c 1.5498,-0.0926 3.0828,-0.52786 4.2363,-1.29687 0.1931,-0.12875 0.3717,-0.2716 0.5527,-0.41211 z"
         style="fill:#f5f7f5;fill-opacity:1;fill-rule:nonzero;stroke:none" />
      <path
         inkscape:connector-curvature="0"
         id="path74743"
         d="m 1423.5469,859.56055 -5.7383,5.73828 c -2.7258,2.72569 -7.3982,7.00851 -10.3184,9.53906 -2.9203,2.53112 -6.1319,2.23819 -8.2734,3.60156 -2.1414,1.36282 -4.575,3.79654 -4.3809,8.08008 0.1954,4.28214 2.7254,6.42448 5.1582,7.68945 1.232,0.64041 2.8387,0.90551 4.4278,0.81055 a 62.007874,62.007874 0 0 0 4.789,-1.70898 c 2.0091,-1.55929 3.2753,-3.82122 3.6329,-6.5 0.3891,-2.92023 3.8945,-7.39649 3.8945,-7.39649 l 19.8515,-19.85351 -13.0429,0 z m -19.7207,20.22851 1.4453,1.74219 1.9297,-0.61133 0.4297,2.05469 2.2226,0.59766 -0.7012,1.80468 1.3067,1.72657 -1.6152,0.95117 0.5019,2.0039 -1.7988,0.31446 -0.3145,1.79687 -2.0019,-0.5 -0.9532,1.61328 -1.7246,-1.30664 -1.8066,0.70117 -0.5977,-2.2207 -2.0527,-0.42969 0.6094,-1.93164 -1.7403,-1.44336 1.6368,-1.37109 -0.6895,-2.0625 2.1817,-0.29883 0.3007,-2.18164 2.0606,0.68945 1.3711,-1.63867 z"
         style="opacity:0.7;fill:#f5f7f5;fill-opacity:1;fill-rule:nonzero;stroke:none" />
    </g>
  </g>
</svg>
